# xmcd CD database file
#
# Track frame offsets:
#	150
#	17890
#	43100
#	78275
#	99022
#	121185
#	141397
#
# Disc length: 2144 seconds
#
# Revision: 0
# Processed by: cddbd v1.5.1PL0 Copyright (c) Steve Scherf et al.
# Submitted via: CDex 1.51
#
DISCID=50085e07
DTITLE=Oscar Peterson Trio - West Side Story
DYEAR=1900
DGENRE=Jazz
TTITLE0=Something's Coming
TTITLE1=Somewhere
TTITLE2=Jet Song
TTITLE3=Tonight
TTITLE4=Maria
TTITLE5=I Feel Pretty
TTITLE6=Reprise
EXTD=
EXTT0=
EXTT1=
EXTT2=
EXTT3=
EXTT4=
EXTT5=
EXTT6=
PLAYORDER=
